<?xml version="1.0" standalone="no"?><!DOCTYPE svg PUBLIC "-//W3C//DTD SVG 1.1//EN" "http://www.w3.org/Graphics/SVG/1.1/DTD/svg11.dtd"><svg height="1024" node-id="1" sillyvg="true" template-height="1024" template-width="1024" version="1.1" viewBox="0 0 1024 1024" width="1024" xmlns="http://www.w3.org/2000/svg" xmlns:xlink="http://www.w3.org/1999/xlink"><defs node-id="30"></defs><g node-id="32"><path d="M 0.00 0.00 L 1024.00 0.00 L 1024.00 1024.00 L 0.00 1024.00 Z" fill="#ffffff" fill-opacity="0" fill-rule="evenodd" group-id="1" id="矩形" node-id="6" stroke="none" target-height="1024" target-width="1024" target-x="0" target-y="0"></path><g node-id="33"><path d="M 660.40 276.00 L 660.65 270.19 L 661.33 264.57 L 662.44 259.14 L 663.97 253.87 L 665.92 248.72 L 668.23 243.81 L 670.88 239.13 L 673.91 234.66 L 677.26 230.43 L 680.90 226.50 L 684.83 222.86 L 689.06 219.51 L 693.53 216.48 L 698.21 213.83 L 703.12 211.52 L 708.27 209.57 L 713.54 208.04 L 718.98 206.93 L 724.59 206.25 L 730.40 206.00 L 736.21 206.25 L 741.82 206.93 L 747.26 208.04 L 752.53 209.57 L 757.68 211.52 L 762.59 213.83 L 767.27 216.48 L 771.74 219.51 L 775.97 222.86 L 779.90 226.50 L 783.54 230.43 L 786.89 234.66 L 789.92 239.13 L 792.57 243.81 L 794.88 248.72 L 796.83 253.87 L 798.36 259.14 L 799.47 264.58 L 800.15 270.19 L 800.40 276.00 L 800.16 281.73 L 799.50 287.26 L 798.42 292.61 L 796.94 297.81 L 795.04 302.90 L 792.80 307.76 L 790.21 312.39 L 787.28 316.81 L 784.01 321.01 L 780.47 324.92 L 776.64 328.55 L 772.52 331.91 L 768.17 334.95 L 763.60 337.64 L 758.81 339.99 L 753.78 342.00 L 758.81 344.01 L 763.60 346.36 L 768.17 349.05 L 772.52 352.09 L 776.64 355.45 L 780.47 359.08 L 784.01 362.99 L 787.28 367.19 L 790.21 371.61 L 792.80 376.24 L 795.04 381.10 L 796.94 386.19 L 798.42 391.39 L 799.50 396.74 L 800.16 402.27 L 800.40 408.00 L 800.16 413.73 L 799.50 419.26 L 798.42 424.61 L 796.94 429.81 L 795.04 434.90 L 792.80 439.76 L 790.21 444.39 L 787.28 448.81 L 784.01 453.01 L 780.47 456.92 L 776.64 460.55 L 772.52 463.91 L 768.17 466.95 L 763.60 469.64 L 758.81 471.99 L 753.78 474.00 L 758.81 476.01 L 763.60 478.36 L 768.17 481.05 L 772.52 484.09 L 776.64 487.45 L 780.47 491.08 L 784.01 494.99 L 787.28 499.19 L 790.21 503.61 L 792.80 508.24 L 795.04 513.10 L 796.94 518.19 L 798.42 523.39 L 799.50 528.74 L 800.16 534.27 L 800.40 540.00 L 800.15 545.81 L 799.47 551.42 L 798.36 556.86 L 796.83 562.13 L 794.88 567.28 L 792.57 572.19 L 789.92 576.87 L 786.89 581.34 L 783.54 585.57 L 779.90 589.50 L 775.97 593.14 L 771.74 596.49 L 767.27 599.52 L 762.59 602.17 L 757.68 604.48 L 752.53 606.43 L 747.26 607.96 L 741.82 609.07 L 736.21 609.75 L 730.40 610.00 L 724.59 609.75 L 718.98 609.07 L 713.54 607.96 L 708.27 606.43 L 703.12 604.48 L 698.21 602.17 L 693.53 599.52 L 689.06 596.49 L 684.83 593.14 L 680.90 589.50 L 677.26 585.57 L 673.91 581.34 L 670.88 576.87 L 668.23 572.19 L 665.92 567.28 L 663.97 562.13 L 662.44 556.86 L 661.33 551.42 L 660.65 545.81 L 660.40 540.00 L 660.64 534.28 L 661.30 528.75 L 662.37 523.40 L 663.86 518.21 L 665.76 513.12 L 667.99 508.26 L 670.58 503.63 L 673.52 499.20 L 676.78 495.00 L 680.32 491.09 L 684.15 487.46 L 688.27 484.10 L 692.63 481.06 L 697.19 478.37 L 701.99 476.01 L 707.03 474.00 L 702.00 471.99 L 697.20 469.64 L 692.64 466.95 L 688.28 463.91 L 684.16 460.55 L 680.34 456.92 L 676.79 453.02 L 673.53 448.82 L 670.59 444.39 L 668.00 439.76 L 665.76 434.90 L 663.87 429.81 L 662.38 424.61 L 661.30 419.26 L 660.64 413.73 L 660.40 408.00 L 660.64 402.28 L 661.30 396.75 L 662.37 391.40 L 663.86 386.21 L 665.76 381.12 L 667.99 376.26 L 670.58 371.63 L 673.52 367.20 L 676.78 363.00 L 680.32 359.09 L 684.15 355.46 L 688.27 352.10 L 692.63 349.06 L 697.19 346.37 L 701.99 344.01 L 707.03 342.00 L 702.00 339.99 L 697.20 337.64 L 692.64 334.95 L 688.28 331.91 L 684.16 328.55 L 680.34 324.92 L 676.79 321.02 L 673.53 316.82 L 670.59 312.39 L 668.00 307.76 L 665.76 302.90 L 663.87 297.81 L 662.38 292.61 L 661.30 287.26 L 660.64 281.73 L 660.40 276.00 Z M 668.40 408.00 L 668.62 413.15 L 669.22 418.12 L 670.20 422.93 L 671.56 427.60 L 673.29 432.16 L 675.33 436.51 L 677.69 440.66 L 680.36 444.62 L 683.34 448.36 L 686.56 451.84 L 690.04 455.06 L 693.78 458.04 L 697.74 460.71 L 701.89 463.07 L 706.24 465.11 L 710.80 466.84 L 715.47 468.20 L 720.28 469.18 L 725.25 469.78 L 730.40 470.00 L 735.55 469.78 L 740.52 469.18 L 745.33 468.20 L 750.00 466.84 L 754.56 465.11 L 758.91 463.07 L 763.06 460.71 L 767.02 458.04 L 770.76 455.06 L 774.24 451.84 L 777.46 448.36 L 780.44 444.62 L 783.11 440.66 L 785.47 436.51 L 787.51 432.16 L 789.24 427.60 L 790.60 422.93 L 791.58 418.12 L 792.18 413.15 L 792.40 408.00 L 792.18 402.85 L 791.58 397.88 L 790.60 393.07 L 789.24 388.40 L 787.51 383.84 L 785.47 379.49 L 783.12 375.34 L 780.44 371.38 L 777.47 367.64 L 774.24 364.16 L 770.77 360.94 L 767.02 357.96 L 763.07 355.29 L 758.92 352.93 L 754.58 350.89 L 750.01 349.16 L 745.35 347.80 L 740.54 346.82 L 735.58 346.22 L 730.43 346.00 L 729.37 346.01 L 724.29 346.30 L 719.39 346.97 L 714.65 348.01 L 710.05 349.42 L 705.55 351.18 L 701.27 353.25 L 697.20 355.63 L 693.31 358.31 L 688.46 362.34 L 684.07 366.80 L 680.13 371.71 L 677.50 375.64 L 675.19 379.76 L 673.19 384.08 L 671.50 388.60 L 670.17 393.23 L 669.20 397.99 L 668.61 402.91 L 668.40 408.00 Z M 668.40 540.00 L 668.62 545.15 L 669.22 550.12 L 670.20 554.93 L 671.56 559.60 L 673.29 564.16 L 675.33 568.51 L 677.69 572.66 L 680.36 576.62 L 683.34 580.36 L 686.56 583.84 L 690.04 587.06 L 693.78 590.04 L 697.74 592.71 L 701.89 595.07 L 706.24 597.11 L 710.80 598.84 L 715.47 600.20 L 720.28 601.18 L 725.25 601.78 L 730.40 602.00 L 735.55 601.78 L 740.52 601.18 L 745.33 600.20 L 750.00 598.84 L 754.56 597.11 L 758.91 595.07 L 763.06 592.71 L 767.02 590.04 L 770.76 587.06 L 774.24 583.84 L 777.46 580.36 L 780.44 576.62 L 783.11 572.66 L 785.47 568.51 L 787.51 564.16 L 789.24 559.60 L 790.60 554.93 L 791.58 550.12 L 792.18 545.15 L 792.40 540.00 L 792.18 534.85 L 791.58 529.88 L 790.60 525.07 L 789.24 520.40 L 787.51 515.84 L 785.47 511.49 L 783.12 507.34 L 780.44 503.38 L 777.47 499.64 L 774.24 496.16 L 770.77 492.94 L 767.02 489.96 L 763.07 487.29 L 758.92 484.93 L 754.58 482.89 L 750.01 481.16 L 745.35 479.80 L 740.54 478.82 L 735.58 478.22 L 730.43 478.00 L 729.37 478.01 L 724.29 478.30 L 719.39 478.97 L 714.65 480.01 L 710.05 481.42 L 705.55 483.18 L 701.27 485.25 L 697.20 487.63 L 693.31 490.31 L 688.46 494.34 L 684.07 498.80 L 680.13 503.71 L 677.50 507.64 L 675.19 511.76 L 673.19 516.08 L 671.50 520.60 L 670.17 525.23 L 669.20 529.99 L 668.61 534.91 L 668.40 540.00 Z M 668.40 276.00 L 668.62 281.15 L 669.22 286.12 L 670.20 290.93 L 671.56 295.60 L 673.29 300.16 L 675.33 304.51 L 677.69 308.66 L 680.36 312.62 L 683.34 316.36 L 686.56 319.84 L 690.04 323.06 L 693.78 326.04 L 697.74 328.71 L 701.89 331.07 L 706.24 333.11 L 710.80 334.84 L 715.47 336.20 L 720.28 337.18 L 725.25 337.78 L 730.40 338.00 L 735.55 337.78 L 740.52 337.18 L 745.33 336.20 L 750.00 334.84 L 754.56 333.11 L 758.91 331.07 L 763.06 328.71 L 767.02 326.04 L 770.76 323.06 L 774.24 319.84 L 777.46 316.36 L 780.44 312.62 L 783.11 308.66 L 785.47 304.51 L 787.51 300.16 L 789.24 295.60 L 790.60 290.93 L 791.58 286.12 L 792.18 281.15 L 792.40 276.00 L 792.18 270.85 L 791.58 265.88 L 790.60 261.07 L 789.24 256.40 L 787.51 251.84 L 785.47 247.49 L 783.11 243.34 L 780.44 239.38 L 777.46 235.64 L 774.24 232.16 L 770.76 228.94 L 767.02 225.96 L 763.06 223.29 L 758.91 220.93 L 754.56 218.89 L 750.00 217.16 L 745.33 215.80 L 740.52 214.82 L 735.55 214.22 L 730.40 214.00 L 725.25 214.22 L 720.28 214.82 L 715.47 215.80 L 710.80 217.16 L 706.24 218.89 L 701.89 220.93 L 697.74 223.29 L 693.78 225.96 L 690.04 228.94 L 686.56 232.16 L 683.34 235.64 L 680.36 239.38 L 677.69 243.34 L 675.33 247.49 L 673.29 251.84 L 671.56 256.40 L 670.20 261.07 L 669.22 265.88 L 668.62 270.85 L 668.40 276.00 Z" fill="#dedaff" fill-rule="nonzero" group-id="1,2" id="形状结合" node-id="8" stroke="none" target-height="404" target-width="140" target-x="660.4" target-y="206"></path><path d="M 745.98 271.97 L 950.00 271.97 L 950.00 280.21 L 745.98 280.21 L 746.37 278.20 L 746.50 276.09 L 746.37 273.98 L 745.98 271.97 Z M 745.98 403.84 L 950.00 403.84 L 950.00 412.09 L 745.98 412.09 L 746.37 410.08 L 746.50 407.97 L 746.37 405.85 L 745.98 403.84 Z M 745.98 535.72 L 950.00 535.72 L 950.00 543.96 L 745.98 543.96 L 746.37 541.95 L 746.50 539.84 L 746.37 537.73 L 745.98 535.72 Z M 725.87 260.13 L 725.88 70.00 L 734.12 70.00 L 734.12 260.13 L 732.11 259.74 L 730.00 259.61 L 727.89 259.74 L 725.87 260.13 Z M 730.00 556.32 L 732.11 556.19 L 734.12 555.81 L 734.12 954.00 L 725.88 954.00 L 725.87 555.81 L 727.89 556.19 L 730.00 556.32 Z M 730.00 292.57 L 732.11 292.44 L 734.12 292.06 L 734.12 392.00 L 732.11 391.61 L 730.00 391.48 L 727.89 391.61 L 725.87 392.00 L 725.87 292.06 L 727.89 292.44 L 730.00 292.57 Z M 730.00 424.45 L 732.11 424.32 L 734.12 423.93 L 734.12 523.88 L 732.11 523.49 L 730.00 523.36 L 727.89 523.49 L 725.87 523.88 L 725.87 423.93 L 727.89 424.32 L 730.00 424.45 Z M 66.00 535.72 L 593.88 535.72 L 593.88 412.09 L 66.00 412.09 L 66.00 403.84 L 593.88 403.84 L 593.88 280.21 L 66.00 280.21 L 66.00 271.97 L 593.88 271.97 L 593.88 70.00 L 602.12 70.00 L 602.12 271.97 L 714.02 271.97 L 713.63 273.98 L 713.50 276.09 L 713.63 278.20 L 714.02 280.21 L 602.12 280.21 L 602.12 403.84 L 714.02 403.84 L 713.63 405.85 L 713.50 407.97 L 713.63 410.08 L 714.02 412.09 L 602.12 412.09 L 602.12 535.72 L 714.02 535.72 L 713.63 537.73 L 713.50 539.84 L 713.63 541.95 L 714.02 543.96 L 602.12 543.96 L 602.12 954.00 L 593.88 954.00 L 593.88 543.96 L 66.00 543.96 L 66.00 535.72 Z" fill="#f3f3f3" fill-rule="evenodd" group-id="1,2" id="形状结合" node-id="9" stroke="none" target-height="884" target-width="884" target-x="66" target-y="70"></path></g><g node-id="34"><path d="M 551.04 516.18 L 726.45 516.18 L 726.45 691.59 L 551.04 691.59 Z" fill="#eeeeff" fill-rule="nonzero" group-id="1,3" id="矩形" node-id="11" stroke="none" target-height="175.4104" target-width="175.41046" target-x="551.0417" target-y="516.1804"></path><path d="M 593.90 572.27 L 803.57 572.27 L 803.57 774.40 L 593.90 774.40 Z" fill="#ffffff" fill-rule="nonzero" group-id="1,3" id="矩形" node-id="12" stroke="none" target-height="202.13312" target-width="209.67029" target-x="593.89764" target-y="572.2669"></path><path d="M 778.19 617.00 L 778.19 752.64 L 645.47 752.64 Z" fill="#eeeeff" fill-opacity="0.79939497" fill-rule="nonzero" group-id="1,3" id="路径" node-id="13" stroke="none" target-height="135.64825" target-width="132.72058" target-x="645.4743" target-y="616.9957"></path><path d="M 627.04 585.09 L 650.46 585.09 L 650.46 752.64 L 627.04 752.64 Z" fill="#eeeeff" fill-rule="nonzero" group-id="1,3" id="矩形" node-id="14" stroke="none" target-height="167.55255" target-width="23.421265" target-x="627.03625" target-y="585.09143"></path><path d="M 620.10 572.27 L 803.57 572.27 L 803.57 774.28 L 620.10 774.28 L 620.10 753.06 L 779.41 753.06 L 779.41 590.81 L 620.10 590.81 L 620.10 572.27 Z" fill="#806eff" fill-rule="nonzero" group-id="1,3" id="形状结合" node-id="15" stroke="none" target-height="202.00848" target-width="183.46667" target-x="620.10126" target-y="572.2669"></path><g node-id="35"><path d="M 240.59 598.74 L 627.04 598.74 L 627.04 774.40 L 240.59 774.40 Z" fill="#a199ff" fill-rule="nonzero" group-id="1,3,4" id="矩形" node-id="17" stroke="none" target-height="175.6596" target-width="386.45105" target-x="240.5852" target-y="598.7404"></path><g node-id="36"><path d="M 363.55 686.57 L 363.32 689.79 L 362.71 692.82 L 361.71 695.69 L 360.34 698.41 L 358.67 700.88 L 356.69 703.13 L 354.44 705.11 L 351.96 706.78 L 349.24 708.15 L 346.37 709.15 L 343.34 709.77 L 340.13 709.99 L 336.91 709.77 L 333.88 709.15 L 331.01 708.15 L 328.29 706.78 L 325.82 705.11 L 323.56 703.13 L 321.58 700.88 L 319.91 698.41 L 318.54 695.69 L 317.54 692.82 L 316.93 689.79 L 316.70 686.57 L 316.93 683.35 L 317.54 680.32 L 318.54 677.45 L 319.91 674.74 L 321.58 672.26 L 323.56 670.01 L 325.82 668.03 L 328.29 666.36 L 331.01 664.99 L 333.88 663.99 L 336.91 663.37 L 340.13 663.15 L 343.34 663.37 L 346.37 663.99 L 349.24 664.99 L 351.96 666.36 L 354.44 668.03 L 356.69 670.01 L 358.67 672.26 L 360.34 674.74 L 361.71 677.45 L 362.71 680.32 L 363.32 683.35 L 363.55 686.57 Z" fill="#ffffff" fill-rule="evenodd" group-id="1,3,4,5" id="椭圆形" node-id="19" stroke="none" target-height="46.84253" target-width="46.84256" target-x="316.7043" target-y="663.1489"></path><path d="M 457.23 686.57 L 457.01 689.79 L 456.39 692.82 L 455.39 695.69 L 454.02 698.41 L 452.35 700.88 L 450.37 703.13 L 448.12 705.11 L 445.65 706.78 L 442.93 708.15 L 440.06 709.15 L 437.03 709.77 L 433.81 709.99 L 430.59 709.77 L 427.56 709.15 L 424.69 708.15 L 421.98 706.78 L 419.50 705.11 L 417.25 703.13 L 415.27 700.88 L 413.60 698.41 L 412.23 695.69 L 411.23 692.82 L 410.61 689.79 L 410.39 686.57 L 410.61 683.35 L 411.23 680.32 L 412.23 677.45 L 413.60 674.74 L 415.27 672.26 L 417.25 670.01 L 419.50 668.03 L 421.98 666.36 L 424.69 664.99 L 427.56 663.99 L 430.59 663.37 L 433.81 663.15 L 437.03 663.37 L 440.06 663.99 L 442.93 664.99 L 445.65 666.36 L 448.12 668.03 L 450.37 670.01 L 452.35 672.26 L 454.02 674.74 L 455.39 677.45 L 456.39 680.32 L 457.01 683.35 L 457.23 686.57 Z" fill="#ffffff" fill-rule="evenodd" group-id="1,3,4,5" id="椭圆形备份" node-id="20" stroke="none" target-height="46.84253" target-width="46.84259" target-x="410.3894" target-y="663.1489"></path><path d="M 550.92 686.57 L 550.69 689.79 L 550.08 692.82 L 549.08 695.69 L 547.71 698.41 L 546.04 700.88 L 544.06 703.13 L 541.81 705.11 L 539.33 706.78 L 536.61 708.15 L 533.74 709.15 L 530.71 709.77 L 527.50 709.99 L 524.28 709.77 L 521.25 709.15 L 518.38 708.15 L 515.66 706.78 L 513.19 705.11 L 510.93 703.13 L 508.95 700.88 L 507.28 698.41 L 505.92 695.69 L 504.91 692.82 L 504.30 689.79 L 504.07 686.57 L 504.30 683.35 L 504.91 680.32 L 505.92 677.45 L 507.28 674.74 L 508.95 672.26 L 510.93 670.01 L 513.19 668.03 L 515.66 666.36 L 518.38 664.99 L 521.25 663.99 L 524.28 663.37 L 527.50 663.15 L 530.71 663.37 L 533.74 663.99 L 536.61 664.99 L 539.33 666.36 L 541.81 668.03 L 544.06 670.01 L 546.04 672.26 L 547.71 674.74 L 549.08 677.45 L 550.08 680.32 L 550.69 683.35 L 550.92 686.57 Z" fill="#ffffff" fill-rule="evenodd" group-id="1,3,4,5" id="椭圆形备份-2" node-id="21" stroke="none" target-height="46.84253" target-width="46.84259" target-x="504.07452" target-y="663.1489"></path></g><path d="M 240.59 224.00 L 627.04 224.00 L 627.04 598.74 L 240.59 598.74 Z" fill="#beb9ff" fill-rule="nonzero" group-id="1,3,4" id="矩形" node-id="22" stroke="none" target-height="374.74042" target-width="386.45105" target-x="240.5852" target-y="224"></path><path d="M 281.57 264.99 L 586.05 264.99 L 586.05 598.74 L 281.57 598.74 Z" fill="#ffffff" fill-rule="nonzero" group-id="1,3,4" id="矩形" node-id="23" stroke="none" target-height="333.75317" target-width="304.47662" target-x="281.57245" target-y="264.98724"></path><path d="M 322.56 517.21 L 386.80 517.21 L 386.80 540.63 L 322.56 540.63 Z" fill="#806eff" fill-rule="evenodd" group-id="1,3,4" id="矩形备份-8" node-id="24" stroke="none" target-height="23.421265" target-width="64.238556" target-x="322.55966" target-y="517.2051"></path><path d="M 322.56 446.94 L 386.80 446.94 L 386.80 470.36 L 322.56 470.36 Z" fill="#806eff" fill-rule="evenodd" group-id="1,3,4" id="矩形备份-2" node-id="25" stroke="none" target-height="23.421265" target-width="64.238556" target-x="322.55966" target-y="446.94128"></path><path d="M 322.56 376.68 L 417.69 376.68 L 417.69 400.10 L 322.56 400.10 Z" fill="#806eff" fill-rule="evenodd" group-id="1,3,4" id="矩形备份" node-id="26" stroke="none" target-height="23.421295" target-width="95.1268" target-x="322.55966" target-y="376.67743"></path><path d="M 322.56 306.41 L 545.06 306.41 L 545.06 329.83 L 322.56 329.83 Z" fill="#806eff" fill-rule="evenodd" group-id="1,3,4" id="矩形" node-id="27" stroke="none" target-height="23.421265" target-width="222.5021" target-x="322.55966" target-y="306.41364"></path><path d="M 485.98 475.73 L 492.82 475.93 L 499.14 476.45 L 504.98 477.27 L 510.37 478.37 L 515.84 479.86 L 520.74 481.54 L 525.11 483.41 L 529.00 485.46 L 532.81 487.90 L 536.02 490.43 L 538.69 493.04 L 540.88 495.74 L 542.74 498.75 L 544.02 501.76 L 544.79 504.82 L 545.06 507.96 L 545.06 534.82 L 544.86 536.27 L 544.33 537.52 L 543.49 538.61 L 542.40 539.46 L 541.15 539.98 L 539.69 540.19 L 432.27 540.19 L 430.81 539.98 L 429.56 539.46 L 428.47 538.61 L 427.63 537.52 L 427.10 536.27 L 426.90 534.82 L 426.90 507.96 L 427.17 504.82 L 427.94 501.76 L 429.22 498.75 L 431.07 495.74 L 433.26 493.04 L 435.94 490.43 L 439.15 487.90 L 442.96 485.46 L 446.85 483.41 L 451.22 481.54 L 456.12 479.86 L 461.58 478.37 L 466.98 477.27 L 472.82 476.45 L 479.14 475.93 L 485.98 475.73 Z M 485.98 400.54 L 490.41 400.84 L 494.57 401.69 L 498.52 403.07 L 502.26 404.95 L 505.67 407.25 L 508.77 409.98 L 511.50 413.07 L 513.79 416.48 L 515.67 420.22 L 517.05 424.17 L 517.90 428.34 L 518.21 432.76 L 517.90 437.19 L 517.05 441.36 L 515.67 445.31 L 513.79 449.05 L 511.50 452.45 L 508.77 455.55 L 505.67 458.28 L 502.26 460.58 L 498.52 462.46 L 494.57 463.84 L 490.41 464.68 L 485.98 464.99 L 481.55 464.68 L 477.39 463.84 L 473.44 462.46 L 469.69 460.58 L 466.29 458.28 L 463.19 455.55 L 460.46 452.45 L 458.17 449.05 L 456.29 445.31 L 454.91 441.36 L 454.06 437.19 L 453.75 432.76 L 454.06 428.34 L 454.91 424.17 L 456.29 420.22 L 458.17 416.48 L 460.46 413.07 L 463.19 409.98 L 466.29 407.25 L 469.69 404.95 L 473.44 403.07 L 477.39 401.69 L 481.55 400.84 L 485.98 400.54 Z" fill="#806eff" fill-rule="evenodd" group-id="1,3,4" id="形状" node-id="28" stroke="none" target-height="139.64938" target-width="118.164795" target-x="426.89697" target-y="400.53787"></path></g></g></g></svg>