<?xml version="1.0" standalone="no"?><!DOCTYPE svg PUBLIC "-//W3C//DTD SVG 1.1//EN" "http://www.w3.org/Graphics/SVG/1.1/DTD/svg11.dtd"><svg height="1024" node-id="1" sillyvg="true" template-height="1024" template-width="1024" version="1.1" viewBox="0 0 1024 1024" width="1024" xmlns="http://www.w3.org/2000/svg" xmlns:xlink="http://www.w3.org/1999/xlink"><defs node-id="55"><clipPath id="mask-2" node-id="48"><path d="M 489.30 744.31 L 409.48 745.42 L 449.89 677.18 Z" fill="#000000" fill-rule="evenodd" node-id="60" stroke="none" target-height="68.2392" target-width="79.82416" target-x="409.4784" target-y="677.17664"></path></clipPath></defs><g node-id="141"><g node-id="142"><path d="M 0.00 0.00 L 1024.00 0.00 L 1024.00 1024.00 L 0.00 1024.00 Z" fill="#ffffff" fill-opacity="0" fill-rule="nonzero" group-id="1,2" id="矩形" node-id="8" stroke="none" target-height="1024" target-width="1024" target-x="0" target-y="0"></path></g><g node-id="143"><g node-id="144"><path d="M 640.00 700.00 L 645.65 700.24 L 651.10 700.90 L 656.37 701.98 L 661.49 703.47 L 666.50 705.36 L 671.27 707.60 L 675.82 710.19 L 680.16 713.12 L 684.27 716.38 L 688.08 719.92 L 691.62 723.73 L 694.88 727.84 L 697.81 732.18 L 700.40 736.73 L 702.64 741.50 L 704.53 746.51 L 706.02 751.63 L 707.10 756.90 L 707.76 762.35 L 708.00 768.00 L 707.76 773.65 L 707.10 779.10 L 706.02 784.37 L 704.53 789.49 L 702.64 794.50 L 700.40 799.27 L 697.81 803.82 L 694.88 808.16 L 691.62 812.27 L 688.08 816.08 L 684.27 819.62 L 680.16 822.88 L 675.82 825.81 L 671.27 828.40 L 666.50 830.64 L 661.49 832.53 L 656.37 834.02 L 651.10 835.10 L 645.65 835.76 L 640.00 836.00 L 634.35 835.76 L 628.90 835.10 L 623.63 834.02 L 618.51 832.53 L 613.50 830.64 L 608.73 828.40 L 604.18 825.81 L 599.84 822.88 L 595.73 819.62 L 591.92 816.08 L 588.38 812.27 L 585.12 808.16 L 582.19 803.82 L 579.60 799.27 L 577.36 794.50 L 575.47 789.49 L 573.98 784.37 L 572.90 779.10 L 572.24 773.65 L 572.00 768.00 L 572.24 762.35 L 572.90 756.90 L 573.98 751.63 L 575.47 746.51 L 577.36 741.50 L 579.60 736.73 L 582.19 732.18 L 585.12 727.84 L 588.38 723.73 L 591.92 719.92 L 595.73 716.38 L 599.84 713.12 L 604.18 710.19 L 608.73 707.60 L 613.50 705.36 L 618.51 703.47 L 623.63 701.98 L 628.90 700.90 L 634.35 700.24 L 640.00 700.00 Z M 640.00 708.00 L 635.02 708.21 L 630.21 708.80 L 625.55 709.75 L 621.04 711.06 L 616.62 712.73 L 612.41 714.71 L 608.39 716.99 L 604.56 719.58 L 599.79 723.47 L 595.47 727.79 L 591.58 732.56 L 588.99 736.39 L 586.71 740.41 L 584.73 744.62 L 583.06 749.04 L 581.75 753.55 L 580.80 758.21 L 580.21 763.02 L 580.00 768.00 L 580.21 772.98 L 580.80 777.79 L 581.75 782.45 L 583.06 786.96 L 584.73 791.38 L 586.71 795.59 L 588.99 799.61 L 591.58 803.44 L 595.47 808.21 L 599.79 812.53 L 604.56 816.42 L 608.39 819.01 L 612.41 821.29 L 616.62 823.27 L 621.04 824.94 L 625.55 826.25 L 630.21 827.20 L 635.02 827.79 L 640.00 828.00 L 644.98 827.79 L 649.79 827.20 L 654.45 826.25 L 658.96 824.94 L 663.38 823.27 L 667.59 821.29 L 671.61 819.01 L 675.44 816.42 L 680.21 812.53 L 684.53 808.21 L 688.42 803.44 L 691.01 799.61 L 693.29 795.59 L 695.27 791.38 L 696.94 786.96 L 698.25 782.45 L 699.20 777.79 L 699.79 772.98 L 700.00 768.00 L 699.79 763.02 L 699.20 758.21 L 698.25 753.55 L 696.94 749.04 L 695.27 744.62 L 693.29 740.41 L 691.01 736.39 L 688.42 732.56 L 684.53 727.79 L 680.21 723.47 L 675.44 719.58 L 671.61 716.99 L 667.59 714.71 L 663.38 712.73 L 658.96 711.06 L 654.45 709.75 L 649.79 708.80 L 644.98 708.21 L 640.00 708.00 Z" fill="#dedaff" fill-rule="nonzero" group-id="1,3,4" id="椭圆形" node-id="11" stroke="none" target-height="136" target-width="136" target-x="572" target-y="700"></path><path d="M 640.00 572.00 L 645.65 572.24 L 651.10 572.90 L 656.37 573.98 L 661.49 575.47 L 666.50 577.36 L 671.27 579.60 L 675.82 582.19 L 680.16 585.12 L 684.27 588.38 L 688.08 591.92 L 691.62 595.73 L 694.88 599.84 L 697.81 604.18 L 700.40 608.73 L 702.64 613.50 L 704.53 618.51 L 706.02 623.63 L 707.10 628.90 L 707.76 634.35 L 708.00 640.00 L 707.76 645.65 L 707.10 651.10 L 706.02 656.37 L 704.53 661.49 L 702.64 666.50 L 700.40 671.27 L 697.81 675.82 L 694.88 680.16 L 691.62 684.27 L 688.08 688.08 L 684.27 691.62 L 680.16 694.88 L 675.82 697.81 L 671.27 700.40 L 666.50 702.64 L 661.49 704.53 L 656.37 706.02 L 651.10 707.10 L 645.65 707.76 L 640.00 708.00 L 634.35 707.76 L 628.90 707.10 L 623.63 706.02 L 618.51 704.53 L 613.50 702.64 L 608.73 700.40 L 604.18 697.81 L 599.84 694.88 L 595.73 691.62 L 591.92 688.08 L 588.38 684.27 L 585.12 680.16 L 582.19 675.82 L 579.60 671.27 L 577.36 666.50 L 575.47 661.49 L 573.98 656.37 L 572.90 651.10 L 572.24 645.65 L 572.00 640.00 L 572.24 634.35 L 572.90 628.90 L 573.98 623.63 L 575.47 618.51 L 577.36 613.50 L 579.60 608.73 L 582.19 604.18 L 585.12 599.84 L 588.38 595.73 L 591.92 591.92 L 595.73 588.38 L 599.84 585.12 L 604.18 582.19 L 608.73 579.60 L 613.50 577.36 L 618.51 575.47 L 623.63 573.98 L 628.90 572.90 L 634.35 572.24 L 640.00 572.00 Z M 640.00 580.00 L 635.02 580.21 L 630.21 580.80 L 625.55 581.75 L 621.04 583.06 L 616.62 584.73 L 612.41 586.71 L 608.39 588.99 L 604.56 591.58 L 599.79 595.47 L 595.47 599.79 L 591.58 604.56 L 588.99 608.39 L 586.71 612.41 L 584.73 616.62 L 583.06 621.04 L 581.75 625.55 L 580.80 630.21 L 580.21 635.02 L 580.00 640.00 L 580.21 644.98 L 580.80 649.79 L 581.75 654.45 L 583.06 658.96 L 584.73 663.38 L 586.71 667.59 L 588.99 671.61 L 591.58 675.44 L 595.47 680.21 L 599.79 684.53 L 604.56 688.42 L 608.39 691.01 L 612.41 693.29 L 616.62 695.27 L 621.04 696.94 L 625.55 698.25 L 630.21 699.20 L 635.02 699.79 L 640.00 700.00 L 644.98 699.79 L 649.79 699.20 L 654.45 698.25 L 658.96 696.94 L 663.38 695.27 L 667.59 693.29 L 671.61 691.01 L 675.44 688.42 L 680.21 684.53 L 684.53 680.21 L 688.42 675.44 L 691.01 671.61 L 693.29 667.59 L 695.27 663.38 L 696.94 658.96 L 698.25 654.45 L 699.20 649.79 L 699.79 644.98 L 700.00 640.00 L 699.79 635.02 L 699.20 630.21 L 698.25 625.55 L 696.94 621.04 L 695.27 616.62 L 693.29 612.41 L 691.01 608.39 L 688.42 604.56 L 684.53 599.79 L 680.21 595.47 L 675.44 591.58 L 671.61 588.99 L 667.59 586.71 L 663.38 584.73 L 658.96 583.06 L 654.45 581.75 L 649.79 580.80 L 644.98 580.21 L 640.00 580.00 Z" fill="#dedaff" fill-rule="nonzero" group-id="1,3,4" id="椭圆形" node-id="12" stroke="none" target-height="136" target-width="136" target-x="572" target-y="572"></path><path d="M 768.00 572.00 L 773.65 572.24 L 779.10 572.90 L 784.37 573.98 L 789.49 575.47 L 794.50 577.36 L 799.27 579.60 L 803.82 582.19 L 808.16 585.12 L 812.27 588.38 L 816.08 591.92 L 819.62 595.73 L 822.88 599.84 L 825.81 604.18 L 828.40 608.73 L 830.64 613.50 L 832.53 618.51 L 834.02 623.63 L 835.10 628.90 L 835.76 634.35 L 836.00 640.00 L 835.76 645.65 L 835.10 651.10 L 834.02 656.37 L 832.53 661.49 L 830.64 666.50 L 828.40 671.27 L 825.81 675.82 L 822.88 680.16 L 819.62 684.27 L 816.08 688.08 L 812.27 691.62 L 808.16 694.88 L 803.82 697.81 L 799.27 700.40 L 794.50 702.64 L 789.49 704.53 L 784.37 706.02 L 779.10 707.10 L 773.65 707.76 L 768.00 708.00 L 762.35 707.76 L 756.90 707.10 L 751.63 706.02 L 746.51 704.53 L 741.50 702.64 L 736.73 700.40 L 732.18 697.81 L 727.84 694.88 L 723.73 691.62 L 719.92 688.08 L 716.38 684.27 L 713.12 680.16 L 710.19 675.82 L 707.60 671.27 L 705.36 666.50 L 703.47 661.49 L 701.98 656.37 L 700.90 651.10 L 700.24 645.65 L 700.00 640.00 L 700.24 634.35 L 700.90 628.90 L 701.98 623.63 L 703.47 618.51 L 705.36 613.50 L 707.60 608.73 L 710.19 604.18 L 713.12 599.84 L 716.38 595.73 L 719.92 591.92 L 723.73 588.38 L 727.84 585.12 L 732.18 582.19 L 736.73 579.60 L 741.50 577.36 L 746.51 575.47 L 751.63 573.98 L 756.90 572.90 L 762.35 572.24 L 768.00 572.00 Z M 768.00 580.00 L 763.02 580.21 L 758.21 580.80 L 753.55 581.75 L 749.04 583.06 L 744.62 584.73 L 740.41 586.71 L 736.39 588.99 L 732.56 591.58 L 727.79 595.47 L 723.47 599.79 L 719.58 604.56 L 716.99 608.39 L 714.71 612.41 L 712.73 616.62 L 711.06 621.04 L 709.75 625.55 L 708.80 630.21 L 708.21 635.02 L 708.00 640.00 L 708.21 644.98 L 708.80 649.79 L 709.75 654.45 L 711.06 658.96 L 712.73 663.38 L 714.71 667.59 L 716.99 671.61 L 719.58 675.44 L 723.47 680.21 L 727.79 684.53 L 732.56 688.42 L 736.39 691.01 L 740.41 693.29 L 744.62 695.27 L 749.04 696.94 L 753.55 698.25 L 758.21 699.20 L 763.02 699.79 L 768.00 700.00 L 772.98 699.79 L 777.79 699.20 L 782.45 698.25 L 786.96 696.94 L 791.38 695.27 L 795.59 693.29 L 799.61 691.01 L 803.44 688.42 L 808.21 684.53 L 812.53 680.21 L 816.42 675.44 L 819.01 671.61 L 821.29 667.59 L 823.27 663.38 L 824.94 658.96 L 826.25 654.45 L 827.20 649.79 L 827.79 644.98 L 828.00 640.00 L 827.79 635.02 L 827.20 630.21 L 826.25 625.55 L 824.94 621.04 L 823.27 616.62 L 821.29 612.41 L 819.01 608.39 L 816.42 604.56 L 812.53 599.79 L 808.21 595.47 L 803.44 591.58 L 799.61 588.99 L 795.59 586.71 L 791.38 584.73 L 786.96 583.06 L 782.45 581.75 L 777.79 580.80 L 772.98 580.21 L 768.00 580.00 Z" fill="#dedaff" fill-rule="nonzero" group-id="1,3,4" id="椭圆形" node-id="13" stroke="none" target-height="136" target-width="136" target-x="700" target-y="572"></path><path d="M 768.00 700.00 L 773.65 700.24 L 779.10 700.90 L 784.37 701.98 L 789.49 703.47 L 794.50 705.36 L 799.27 707.60 L 803.82 710.19 L 808.16 713.12 L 812.27 716.38 L 816.08 719.92 L 819.62 723.73 L 822.88 727.84 L 825.81 732.18 L 828.40 736.73 L 830.64 741.50 L 832.53 746.51 L 834.02 751.63 L 835.10 756.90 L 835.76 762.35 L 836.00 768.00 L 835.76 773.65 L 835.10 779.10 L 834.02 784.37 L 832.53 789.49 L 830.64 794.50 L 828.40 799.27 L 825.81 803.82 L 822.88 808.16 L 819.62 812.27 L 816.08 816.08 L 812.27 819.62 L 808.16 822.88 L 803.82 825.81 L 799.27 828.40 L 794.50 830.64 L 789.49 832.53 L 784.37 834.02 L 779.10 835.10 L 773.65 835.76 L 768.00 836.00 L 762.35 835.76 L 756.90 835.10 L 751.63 834.02 L 746.51 832.53 L 741.50 830.64 L 736.73 828.40 L 732.18 825.81 L 727.84 822.88 L 723.73 819.62 L 719.92 816.08 L 716.38 812.27 L 713.12 808.16 L 710.19 803.82 L 707.60 799.27 L 705.36 794.50 L 703.47 789.49 L 701.98 784.37 L 700.90 779.10 L 700.24 773.65 L 700.00 768.00 L 700.24 762.35 L 700.90 756.90 L 701.98 751.63 L 703.47 746.51 L 705.36 741.50 L 707.60 736.73 L 710.19 732.18 L 713.12 727.84 L 716.38 723.73 L 719.92 719.92 L 723.73 716.38 L 727.84 713.12 L 732.18 710.19 L 736.73 707.60 L 741.50 705.36 L 746.51 703.47 L 751.63 701.98 L 756.90 700.90 L 762.35 700.24 L 768.00 700.00 Z M 768.00 708.00 L 763.02 708.21 L 758.21 708.80 L 753.55 709.75 L 749.04 711.06 L 744.62 712.73 L 740.41 714.71 L 736.39 716.99 L 732.56 719.58 L 727.79 723.47 L 723.47 727.79 L 719.58 732.56 L 716.99 736.39 L 714.71 740.41 L 712.73 744.62 L 711.06 749.04 L 709.75 753.55 L 708.80 758.21 L 708.21 763.02 L 708.00 768.00 L 708.21 772.98 L 708.80 777.79 L 709.75 782.45 L 711.06 786.96 L 712.73 791.38 L 714.71 795.59 L 716.99 799.61 L 719.58 803.44 L 723.47 808.21 L 727.79 812.53 L 732.56 816.42 L 736.39 819.01 L 740.41 821.29 L 744.62 823.27 L 749.04 824.94 L 753.55 826.25 L 758.21 827.20 L 763.02 827.79 L 768.00 828.00 L 772.98 827.79 L 777.79 827.20 L 782.45 826.25 L 786.96 824.94 L 791.38 823.27 L 795.59 821.29 L 799.61 819.01 L 803.44 816.42 L 808.21 812.53 L 812.53 808.21 L 816.42 803.44 L 819.01 799.61 L 821.29 795.59 L 823.27 791.38 L 824.94 786.96 L 826.25 782.45 L 827.20 777.79 L 827.79 772.98 L 828.00 768.00 L 827.79 763.02 L 827.20 758.21 L 826.25 753.55 L 824.94 749.04 L 823.27 744.62 L 821.29 740.41 L 819.01 736.39 L 816.42 732.56 L 812.53 727.79 L 808.21 723.47 L 803.44 719.58 L 799.61 716.99 L 795.59 714.71 L 791.38 712.73 L 786.96 711.06 L 782.45 709.75 L 777.79 708.80 L 772.98 708.21 L 768.00 708.00 Z" fill="#dedaff" fill-rule="nonzero" group-id="1,3,4" id="椭圆形" node-id="14" stroke="none" target-height="136" target-width="136" target-x="700" target-y="700"></path><g node-id="147"><path d="M 644.00 128.00 L 644.00 896.00 L 636.00 896.00 L 636.00 128.00 Z" fill="#f7f7f7" fill-rule="nonzero" group-id="1,3,4,7" id="矩形" node-id="15" stroke="none" target-height="768" target-width="8" target-x="636" target-y="128"></path></g><g node-id="148"><path d="M 772.00 128.00 L 772.00 896.00 L 764.00 896.00 L 764.00 128.00 Z" fill="#f7f7f7" fill-rule="nonzero" group-id="1,3,4,8" id="矩形" node-id="16" stroke="none" target-height="768" target-width="8" target-x="764" target-y="128"></path></g><path d="M 64.00 764.00 L 960.00 764.00 L 960.00 772.00 L 64.00 772.00 Z" fill="#f7f7f7" fill-rule="nonzero" group-id="1,3,4" id="矩形" node-id="17" stroke="none" target-height="8" target-width="896" target-x="64" target-y="764"></path><path d="M 64.00 636.00 L 960.00 636.00 L 960.00 644.00 L 64.00 644.00 Z" fill="#f7f7f7" fill-rule="nonzero" group-id="1,3,4" id="矩形" node-id="18" stroke="none" target-height="8" target-width="896" target-x="64" target-y="636"></path><path d="M 656.00 640.00 L 655.73 642.92 L 655.00 645.60 L 653.82 648.08 L 652.23 650.32 L 650.32 652.23 L 648.08 653.82 L 645.60 655.00 L 642.92 655.73 L 640.00 656.00 L 637.08 655.73 L 634.40 655.00 L 631.92 653.82 L 629.68 652.23 L 627.77 650.32 L 626.18 648.08 L 625.00 645.60 L 624.27 642.92 L 624.00 640.00 L 624.27 637.08 L 625.00 634.40 L 626.18 631.92 L 627.77 629.68 L 629.68 627.77 L 631.92 626.18 L 634.40 625.00 L 637.08 624.27 L 640.00 624.00 L 642.92 624.27 L 645.60 625.00 L 648.08 626.18 L 650.32 627.77 L 652.23 629.68 L 653.82 631.92 L 655.00 634.40 L 655.73 637.08 L 656.00 640.00 Z" fill="#ffffff" fill-rule="nonzero" group-id="1,3,4" id="椭圆形" node-id="19" stroke="none" target-height="32" target-width="32" target-x="624" target-y="624"></path><path d="M 656.00 768.00 L 655.73 770.92 L 655.00 773.60 L 653.82 776.08 L 652.23 778.32 L 650.32 780.23 L 648.08 781.82 L 645.60 783.00 L 642.92 783.73 L 640.00 784.00 L 637.08 783.73 L 634.40 783.00 L 631.92 781.82 L 629.68 780.23 L 627.77 778.32 L 626.18 776.08 L 625.00 773.60 L 624.27 770.92 L 624.00 768.00 L 624.27 765.08 L 625.00 762.40 L 626.18 759.92 L 627.77 757.68 L 629.68 755.77 L 631.92 754.18 L 634.40 753.00 L 637.08 752.27 L 640.00 752.00 L 642.92 752.27 L 645.60 753.00 L 648.08 754.18 L 650.32 755.77 L 652.23 757.68 L 653.82 759.92 L 655.00 762.40 L 655.73 765.08 L 656.00 768.00 Z" fill="#ffffff" fill-rule="nonzero" group-id="1,3,4" id="椭圆形" node-id="20" stroke="none" target-height="32" target-width="32" target-x="624" target-y="752"></path><path d="M 784.00 768.00 L 783.73 770.92 L 783.00 773.60 L 781.82 776.08 L 780.23 778.32 L 778.32 780.23 L 776.08 781.82 L 773.60 783.00 L 770.92 783.73 L 768.00 784.00 L 765.08 783.73 L 762.40 783.00 L 759.92 781.82 L 757.68 780.23 L 755.77 778.32 L 754.18 776.08 L 753.00 773.60 L 752.27 770.92 L 752.00 768.00 L 752.27 765.08 L 753.00 762.40 L 754.18 759.92 L 755.77 757.68 L 757.68 755.77 L 759.92 754.18 L 762.40 753.00 L 765.08 752.27 L 768.00 752.00 L 770.92 752.27 L 773.60 753.00 L 776.08 754.18 L 778.32 755.77 L 780.23 757.68 L 781.82 759.92 L 783.00 762.40 L 783.73 765.08 L 784.00 768.00 Z" fill="#ffffff" fill-rule="nonzero" group-id="1,3,4" id="椭圆形" node-id="21" stroke="none" target-height="32" target-width="32" target-x="752" target-y="752"></path><path d="M 784.00 640.00 L 783.73 642.92 L 783.00 645.60 L 781.82 648.08 L 780.23 650.32 L 778.32 652.23 L 776.08 653.82 L 773.60 655.00 L 770.92 655.73 L 768.00 656.00 L 765.08 655.73 L 762.40 655.00 L 759.92 653.82 L 757.68 652.23 L 755.77 650.32 L 754.18 648.08 L 753.00 645.60 L 752.27 642.92 L 752.00 640.00 L 752.27 637.08 L 753.00 634.40 L 754.18 631.92 L 755.77 629.68 L 757.68 627.77 L 759.92 626.18 L 762.40 625.00 L 765.08 624.27 L 768.00 624.00 L 770.92 624.27 L 773.60 625.00 L 776.08 626.18 L 778.32 627.77 L 780.23 629.68 L 781.82 631.92 L 783.00 634.40 L 783.73 637.08 L 784.00 640.00 Z" fill="#ffffff" fill-rule="nonzero" group-id="1,3,4" id="椭圆形" node-id="22" stroke="none" target-height="32" target-width="32" target-x="752" target-y="624"></path></g><g node-id="145"><g node-id="149"><path d="M 376.00 732.00 L 336.00 768.00 L 296.00 732.00 L 376.00 732.00 Z M 296.00 732.00 L 256.00 768.00 L 256.00 732.00 L 296.00 732.00 Z M 456.00 732.00 L 416.00 768.00 L 376.00 732.00 L 456.00 732.00 Z M 576.00 732.00 L 576.00 768.00 L 536.00 732.00 L 576.00 732.00 Z M 456.00 732.00 L 536.00 732.00 L 496.00 768.00 L 456.00 732.00 Z" fill="#dedaff" fill-rule="evenodd" group-id="1,3,5,9" id="形状结合" node-id="25" stroke="none" target-height="36" target-width="320" target-x="256" target-y="732"></path><g node-id="158"><path d="M 376.00 292.00 L 336.00 256.00 L 296.00 292.00 L 376.00 292.00 Z M 296.00 292.00 L 256.00 256.00 L 256.00 292.00 L 296.00 292.00 Z M 456.00 292.00 L 416.00 256.00 L 376.00 292.00 L 456.00 292.00 Z M 576.00 292.00 L 576.00 256.00 L 536.00 292.00 L 576.00 292.00 Z M 456.00 292.00 L 536.00 292.00 L 496.00 256.00 L 456.00 292.00 Z" fill="#dedaff" fill-rule="evenodd" group-id="1,3,5,9,18" id="形状结合" node-id="26" stroke="none" target-height="36" target-width="320" target-x="256" target-y="256"></path></g><path d="M 256.00 292.00 L 576.00 292.00 L 576.00 732.00 L 256.00 732.00 Z" fill="#6448f4" fill-rule="nonzero" group-id="1,3,5,9" id="矩形" node-id="27" stroke="none" target-height="440" target-width="320" target-x="256" target-y="292"></path><path d="M 576.00 692.00 L 576.00 732.00 L 256.00 732.00 L 256.00 692.00 L 576.00 692.00 Z M 576.00 292.00 L 576.00 332.00 L 256.00 332.00 L 256.00 292.00 L 576.00 292.00 Z" fill="#beb9ff" fill-rule="evenodd" group-id="1,3,5,9" id="形状结合" node-id="28" stroke="none" target-height="440" target-width="320" target-x="256" target-y="292"></path></g><path d="M 269.00 690.00 L 270.17 690.25 L 271.12 690.94 L 271.76 691.94 L 272.00 693.20 L 271.76 694.46 L 271.12 695.46 L 270.17 696.15 L 269.00 696.40 L 267.00 696.40 L 265.83 696.15 L 264.88 695.46 L 264.24 694.46 L 264.00 693.20 L 264.24 691.94 L 264.88 690.94 L 265.83 690.25 L 267.00 690.00 L 269.00 690.00 Z M 289.00 690.00 L 290.17 690.25 L 291.12 690.94 L 291.76 691.94 L 292.00 693.20 L 291.76 694.46 L 291.12 695.46 L 290.17 696.15 L 289.00 696.40 L 287.00 696.40 L 285.83 696.15 L 284.88 695.46 L 284.24 694.46 L 284.00 693.20 L 284.24 691.94 L 284.88 690.94 L 285.83 690.25 L 287.00 690.00 L 289.00 690.00 Z M 309.00 690.00 L 310.17 690.25 L 311.12 690.94 L 311.76 691.94 L 312.00 693.20 L 311.76 694.46 L 311.12 695.46 L 310.17 696.15 L 309.00 696.40 L 307.00 696.40 L 305.83 696.15 L 304.88 695.46 L 304.24 694.46 L 304.00 693.20 L 304.24 691.94 L 304.88 690.94 L 305.83 690.25 L 307.00 690.00 L 309.00 690.00 Z M 329.00 690.00 L 330.17 690.25 L 331.12 690.94 L 331.76 691.94 L 332.00 693.20 L 331.76 694.46 L 331.12 695.46 L 330.17 696.15 L 329.00 696.40 L 327.00 696.40 L 325.83 696.15 L 324.88 695.46 L 324.24 694.46 L 324.00 693.20 L 324.24 691.94 L 324.88 690.94 L 325.83 690.25 L 327.00 690.00 L 329.00 690.00 Z M 349.00 690.00 L 350.17 690.25 L 351.12 690.94 L 351.76 691.94 L 352.00 693.20 L 351.76 694.46 L 351.12 695.46 L 350.17 696.15 L 349.00 696.40 L 347.00 696.40 L 345.83 696.15 L 344.88 695.46 L 344.24 694.46 L 344.00 693.20 L 344.24 691.94 L 344.88 690.94 L 345.83 690.25 L 347.00 690.00 L 349.00 690.00 Z M 369.00 690.00 L 370.17 690.25 L 371.12 690.94 L 371.76 691.94 L 372.00 693.20 L 371.76 694.46 L 371.12 695.46 L 370.17 696.15 L 369.00 696.40 L 367.00 696.40 L 365.83 696.15 L 364.88 695.46 L 364.24 694.46 L 364.00 693.20 L 364.24 691.94 L 364.88 690.94 L 365.83 690.25 L 367.00 690.00 L 369.00 690.00 Z M 389.00 690.00 L 390.17 690.25 L 391.12 690.94 L 391.76 691.94 L 392.00 693.20 L 391.76 694.46 L 391.12 695.46 L 390.17 696.15 L 389.00 696.40 L 387.00 696.40 L 385.83 696.15 L 384.88 695.46 L 384.24 694.46 L 384.00 693.20 L 384.24 691.94 L 384.88 690.94 L 385.83 690.25 L 387.00 690.00 L 389.00 690.00 Z M 409.00 690.00 L 410.17 690.25 L 411.12 690.94 L 411.76 691.94 L 412.00 693.20 L 411.76 694.46 L 411.12 695.46 L 410.17 696.15 L 409.00 696.40 L 407.00 696.40 L 405.83 696.15 L 404.88 695.46 L 404.24 694.46 L 404.00 693.20 L 404.24 691.94 L 404.88 690.94 L 405.83 690.25 L 407.00 690.00 L 409.00 690.00 Z M 429.00 690.00 L 430.17 690.25 L 431.12 690.94 L 431.76 691.94 L 432.00 693.20 L 431.76 694.46 L 431.12 695.46 L 430.17 696.15 L 429.00 696.40 L 427.00 696.40 L 425.83 696.15 L 424.88 695.46 L 424.24 694.46 L 424.00 693.20 L 424.24 691.94 L 424.88 690.94 L 425.83 690.25 L 427.00 690.00 L 429.00 690.00 Z M 449.00 690.00 L 450.17 690.25 L 451.12 690.94 L 451.76 691.94 L 452.00 693.20 L 451.76 694.46 L 451.12 695.46 L 450.17 696.15 L 449.00 696.40 L 447.00 696.40 L 445.83 696.15 L 444.88 695.46 L 444.24 694.46 L 444.00 693.20 L 444.24 691.94 L 444.88 690.94 L 445.83 690.25 L 447.00 690.00 L 449.00 690.00 Z M 469.00 690.00 L 470.17 690.25 L 471.12 690.94 L 471.76 691.94 L 472.00 693.20 L 471.76 694.46 L 471.12 695.46 L 470.17 696.15 L 469.00 696.40 L 467.00 696.40 L 465.83 696.15 L 464.88 695.46 L 464.24 694.46 L 464.00 693.20 L 464.24 691.94 L 464.88 690.94 L 465.83 690.25 L 467.00 690.00 L 469.00 690.00 Z M 489.00 690.00 L 490.17 690.25 L 491.12 690.94 L 491.76 691.94 L 492.00 693.20 L 491.76 694.46 L 491.12 695.46 L 490.17 696.15 L 489.00 696.40 L 487.00 696.40 L 485.83 696.15 L 484.88 695.46 L 484.24 694.46 L 484.00 693.20 L 484.24 691.94 L 484.88 690.94 L 485.83 690.25 L 487.00 690.00 L 489.00 690.00 Z M 509.00 690.00 L 510.17 690.25 L 511.12 690.94 L 511.76 691.94 L 512.00 693.20 L 511.76 694.46 L 511.12 695.46 L 510.17 696.15 L 509.00 696.40 L 507.00 696.40 L 505.83 696.15 L 504.88 695.46 L 504.24 694.46 L 504.00 693.20 L 504.24 691.94 L 504.88 690.94 L 505.83 690.25 L 507.00 690.00 L 509.00 690.00 Z M 529.00 690.00 L 530.17 690.25 L 531.12 690.94 L 531.76 691.94 L 532.00 693.20 L 531.76 694.46 L 531.12 695.46 L 530.17 696.15 L 529.00 696.40 L 527.00 696.40 L 525.83 696.15 L 524.88 695.46 L 524.24 694.46 L 524.00 693.20 L 524.24 691.94 L 524.88 690.94 L 525.83 690.25 L 527.00 690.00 L 529.00 690.00 Z M 549.00 690.00 L 550.17 690.25 L 551.12 690.94 L 551.76 691.94 L 552.00 693.20 L 551.76 694.46 L 551.12 695.46 L 550.17 696.15 L 549.00 696.40 L 547.00 696.40 L 545.83 696.15 L 544.88 695.46 L 544.24 694.46 L 544.00 693.20 L 544.24 691.94 L 544.88 690.94 L 545.83 690.25 L 547.00 690.00 L 549.00 690.00 Z" fill="#ffffff" fill-rule="nonzero" group-id="1,3,5" id="路径" node-id="29" stroke="none" target-height="6.4000244" target-width="288" target-x="264" target-y="690"></path><path d="M 269.00 328.00 L 270.17 328.25 L 271.12 328.94 L 271.76 329.94 L 272.00 331.20 L 271.76 332.46 L 271.12 333.46 L 270.17 334.15 L 269.00 334.40 L 267.00 334.40 L 265.83 334.15 L 264.88 333.46 L 264.24 332.46 L 264.00 331.20 L 264.24 329.94 L 264.88 328.94 L 265.83 328.25 L 267.00 328.00 L 269.00 328.00 Z M 289.00 328.00 L 290.17 328.25 L 291.12 328.94 L 291.76 329.94 L 292.00 331.20 L 291.76 332.46 L 291.12 333.46 L 290.17 334.15 L 289.00 334.40 L 287.00 334.40 L 285.83 334.15 L 284.88 333.46 L 284.24 332.46 L 284.00 331.20 L 284.24 329.94 L 284.88 328.94 L 285.83 328.25 L 287.00 328.00 L 289.00 328.00 Z M 309.00 328.00 L 310.17 328.25 L 311.12 328.94 L 311.76 329.94 L 312.00 331.20 L 311.76 332.46 L 311.12 333.46 L 310.17 334.15 L 309.00 334.40 L 307.00 334.40 L 305.83 334.15 L 304.88 333.46 L 304.24 332.46 L 304.00 331.20 L 304.24 329.94 L 304.88 328.94 L 305.83 328.25 L 307.00 328.00 L 309.00 328.00 Z M 329.00 328.00 L 330.17 328.25 L 331.12 328.94 L 331.76 329.94 L 332.00 331.20 L 331.76 332.46 L 331.12 333.46 L 330.17 334.15 L 329.00 334.40 L 327.00 334.40 L 325.83 334.15 L 324.88 333.46 L 324.24 332.46 L 324.00 331.20 L 324.24 329.94 L 324.88 328.94 L 325.83 328.25 L 327.00 328.00 L 329.00 328.00 Z M 349.00 328.00 L 350.17 328.25 L 351.12 328.94 L 351.76 329.94 L 352.00 331.20 L 351.76 332.46 L 351.12 333.46 L 350.17 334.15 L 349.00 334.40 L 347.00 334.40 L 345.83 334.15 L 344.88 333.46 L 344.24 332.46 L 344.00 331.20 L 344.24 329.94 L 344.88 328.94 L 345.83 328.25 L 347.00 328.00 L 349.00 328.00 Z M 369.00 328.00 L 370.17 328.25 L 371.12 328.94 L 371.76 329.94 L 372.00 331.20 L 371.76 332.46 L 371.12 333.46 L 370.17 334.15 L 369.00 334.40 L 367.00 334.40 L 365.83 334.15 L 364.88 333.46 L 364.24 332.46 L 364.00 331.20 L 364.24 329.94 L 364.88 328.94 L 365.83 328.25 L 367.00 328.00 L 369.00 328.00 Z M 389.00 328.00 L 390.17 328.25 L 391.12 328.94 L 391.76 329.94 L 392.00 331.20 L 391.76 332.46 L 391.12 333.46 L 390.17 334.15 L 389.00 334.40 L 387.00 334.40 L 385.83 334.15 L 384.88 333.46 L 384.24 332.46 L 384.00 331.20 L 384.24 329.94 L 384.88 328.94 L 385.83 328.25 L 387.00 328.00 L 389.00 328.00 Z M 409.00 328.00 L 410.17 328.25 L 411.12 328.94 L 411.76 329.94 L 412.00 331.20 L 411.76 332.46 L 411.12 333.46 L 410.17 334.15 L 409.00 334.40 L 407.00 334.40 L 405.83 334.15 L 404.88 333.46 L 404.24 332.46 L 404.00 331.20 L 404.24 329.94 L 404.88 328.94 L 405.83 328.25 L 407.00 328.00 L 409.00 328.00 Z M 429.00 328.00 L 430.17 328.25 L 431.12 328.94 L 431.76 329.94 L 432.00 331.20 L 431.76 332.46 L 431.12 333.46 L 430.17 334.15 L 429.00 334.40 L 427.00 334.40 L 425.83 334.15 L 424.88 333.46 L 424.24 332.46 L 424.00 331.20 L 424.24 329.94 L 424.88 328.94 L 425.83 328.25 L 427.00 328.00 L 429.00 328.00 Z M 449.00 328.00 L 450.17 328.25 L 451.12 328.94 L 451.76 329.94 L 452.00 331.20 L 451.76 332.46 L 451.12 333.46 L 450.17 334.15 L 449.00 334.40 L 447.00 334.40 L 445.83 334.15 L 444.88 333.46 L 444.24 332.46 L 444.00 331.20 L 444.24 329.94 L 444.88 328.94 L 445.83 328.25 L 447.00 328.00 L 449.00 328.00 Z M 469.00 328.00 L 470.17 328.25 L 471.12 328.94 L 471.76 329.94 L 472.00 331.20 L 471.76 332.46 L 471.12 333.46 L 470.17 334.15 L 469.00 334.40 L 467.00 334.40 L 465.83 334.15 L 464.88 333.46 L 464.24 332.46 L 464.00 331.20 L 464.24 329.94 L 464.88 328.94 L 465.83 328.25 L 467.00 328.00 L 469.00 328.00 Z M 489.00 328.00 L 490.17 328.25 L 491.12 328.94 L 491.76 329.94 L 492.00 331.20 L 491.76 332.46 L 491.12 333.46 L 490.17 334.15 L 489.00 334.40 L 487.00 334.40 L 485.83 334.15 L 484.88 333.46 L 484.24 332.46 L 484.00 331.20 L 484.24 329.94 L 484.88 328.94 L 485.83 328.25 L 487.00 328.00 L 489.00 328.00 Z M 509.00 328.00 L 510.17 328.25 L 511.12 328.94 L 511.76 329.94 L 512.00 331.20 L 511.76 332.46 L 511.12 333.46 L 510.17 334.15 L 509.00 334.40 L 507.00 334.40 L 505.83 334.15 L 504.88 333.46 L 504.24 332.46 L 504.00 331.20 L 504.24 329.94 L 504.88 328.94 L 505.83 328.25 L 507.00 328.00 L 509.00 328.00 Z M 529.00 328.00 L 530.17 328.25 L 531.12 328.94 L 531.76 329.94 L 532.00 331.20 L 531.76 332.46 L 531.12 333.46 L 530.17 334.15 L 529.00 334.40 L 527.00 334.40 L 525.83 334.15 L 524.88 333.46 L 524.24 332.46 L 524.00 331.20 L 524.24 329.94 L 524.88 328.94 L 525.83 328.25 L 527.00 328.00 L 529.00 328.00 Z M 549.00 328.00 L 550.17 328.25 L 551.12 328.94 L 551.76 329.94 L 552.00 331.20 L 551.76 332.46 L 551.12 333.46 L 550.17 334.15 L 549.00 334.40 L 547.00 334.40 L 545.83 334.15 L 544.88 333.46 L 544.24 332.46 L 544.00 331.20 L 544.24 329.94 L 544.88 328.94 L 545.83 328.25 L 547.00 328.00 L 549.00 328.00 Z" fill="#ffffff" fill-rule="nonzero" group-id="1,3,5" id="路径" node-id="30" stroke="none" target-height="6.399994" target-width="288" target-x="264" target-y="328"></path><path d="M 384.00 406.00 L 536.00 406.00 L 536.00 426.00 L 384.00 426.00 Z" fill="#ffffff" fill-rule="nonzero" group-id="1,3,5" id="矩形" node-id="31" stroke="none" target-height="20" target-width="152" target-x="384" target-y="406"></path><path d="M 390.00 486.00 L 536.00 486.00 L 536.00 506.00 L 390.00 506.00 Z" fill="#ffffff" fill-rule="nonzero" group-id="1,3,5" id="矩形" node-id="32" stroke="none" target-height="20" target-width="146" target-x="390" target-y="486"></path><path d="M 390.00 566.00 L 536.00 566.00 L 536.00 586.00 L 390.00 586.00 Z" fill="#ffffff" fill-rule="nonzero" group-id="1,3,5" id="矩形" node-id="33" stroke="none" target-height="20" target-width="146" target-x="390" target-y="566"></path><path d="M 360.00 576.00 L 359.70 580.40 L 358.85 584.53 L 357.49 588.46 L 355.62 592.17 L 353.34 595.55 L 350.63 598.63 L 347.55 601.34 L 344.17 603.62 L 340.46 605.49 L 336.53 606.85 L 332.40 607.70 L 328.00 608.00 L 323.60 607.70 L 319.47 606.85 L 315.54 605.49 L 311.83 603.62 L 308.45 601.34 L 305.37 598.63 L 302.66 595.55 L 300.38 592.17 L 298.51 588.46 L 297.15 584.53 L 296.30 580.40 L 296.00 576.00 L 296.30 571.60 L 297.15 567.47 L 298.51 563.54 L 300.38 559.83 L 302.66 556.45 L 305.37 553.37 L 308.45 550.66 L 311.83 548.38 L 315.54 546.51 L 319.47 545.15 L 323.60 544.30 L 328.00 544.00 L 332.40 544.30 L 336.53 545.15 L 340.46 546.51 L 344.17 548.38 L 347.55 550.66 L 350.63 553.37 L 353.34 556.45 L 355.62 559.83 L 357.49 563.54 L 358.85 567.47 L 359.70 571.60 L 360.00 576.00 Z" fill="#160a45" fill-rule="nonzero" group-id="1,3,5,10" id="椭圆形" node-id="35" stroke="none" target-height="64" target-width="64" target-x="296" target-y="544"></path><path d="M 307.66 581.35 L 314.76 574.18 L 321.89 581.40 L 343.18 559.88 L 350.32 567.10 L 321.94 595.79 Z" fill="#ffffff" fill-rule="nonzero" group-id="1,3,5,10,19" id="形状结合" node-id="36" stroke="none" target-height="35.902527" target-width="42.660187" target-x="307.6597" target-y="559.88336"></path><path d="M 360.00 496.00 L 359.70 500.40 L 358.85 504.53 L 357.49 508.46 L 355.62 512.17 L 353.34 515.55 L 350.63 518.63 L 347.55 521.34 L 344.17 523.62 L 340.46 525.49 L 336.53 526.85 L 332.40 527.70 L 328.00 528.00 L 323.60 527.70 L 319.47 526.85 L 315.54 525.49 L 311.83 523.62 L 308.45 521.34 L 305.37 518.63 L 302.66 515.55 L 300.38 512.17 L 298.51 508.46 L 297.15 504.53 L 296.30 500.40 L 296.00 496.00 L 296.30 491.60 L 297.15 487.47 L 298.51 483.54 L 300.38 479.83 L 302.66 476.45 L 305.37 473.37 L 308.45 470.66 L 311.83 468.38 L 315.54 466.51 L 319.47 465.15 L 323.60 464.30 L 328.00 464.00 L 332.40 464.30 L 336.53 465.15 L 340.46 466.51 L 344.17 468.38 L 347.55 470.66 L 350.63 473.37 L 353.34 476.45 L 355.62 479.83 L 357.49 483.54 L 358.85 487.47 L 359.70 491.60 L 360.00 496.00 Z" fill="#dedaff" fill-rule="evenodd" group-id="1,3,5,11" id="椭圆形" node-id="38" stroke="none" target-height="64" target-width="64" target-x="296" target-y="464"></path><path d="M 307.66 501.35 L 314.76 494.18 L 321.89 501.40 L 343.18 479.88 L 350.32 487.10 L 321.94 515.79 Z" fill="#ffffff" fill-rule="nonzero" group-id="1,3,5,11,20" id="形状结合" node-id="39" stroke="none" target-height="35.902527" target-width="42.660187" target-x="307.6597" target-y="479.88336"></path><path d="M 360.00 416.00 L 359.70 420.40 L 358.85 424.53 L 357.49 428.46 L 355.62 432.17 L 353.34 435.55 L 350.63 438.63 L 347.55 441.34 L 344.17 443.62 L 340.46 445.49 L 336.53 446.85 L 332.40 447.70 L 328.00 448.00 L 323.60 447.70 L 319.47 446.85 L 315.54 445.49 L 311.83 443.62 L 308.45 441.34 L 305.37 438.63 L 302.66 435.55 L 300.38 432.17 L 298.51 428.46 L 297.15 424.53 L 296.30 420.40 L 296.00 416.00 L 296.30 411.60 L 297.15 407.47 L 298.51 403.54 L 300.38 399.83 L 302.66 396.45 L 305.37 393.37 L 308.45 390.66 L 311.83 388.38 L 315.54 386.51 L 319.47 385.15 L 323.60 384.30 L 328.00 384.00 L 332.40 384.30 L 336.53 385.15 L 340.46 386.51 L 344.17 388.38 L 347.55 390.66 L 350.63 393.37 L 353.34 396.45 L 355.62 399.83 L 357.49 403.54 L 358.85 407.47 L 359.70 411.60 L 360.00 416.00 Z" fill="#beb9ff" fill-rule="evenodd" group-id="1,3,5,12" id="椭圆形" node-id="41" stroke="none" target-height="64" target-width="64" target-x="296" target-y="384"></path><path d="M 307.66 421.35 L 314.76 414.18 L 321.89 421.40 L 343.18 399.88 L 350.32 407.10 L 321.94 435.79 Z" fill="#ffffff" fill-rule="nonzero" group-id="1,3,5,12,21" id="形状结合" node-id="42" stroke="none" target-height="35.902527" target-width="42.660187" target-x="307.6597" target-y="399.88336"></path></g><g node-id="146"><g node-id="153"><path d="M 717.97 474.46 L 519.98 672.45 L 463.41 615.88 L 661.40 417.89 Z" fill="#eeeeff" fill-opacity="0.79939497" fill-rule="nonzero" group-id="1,3,6,13" id="矩形" node-id="44" stroke="none" target-height="254.55847" target-width="254.55847" target-x="463.4071" target-y="417.8924"></path></g><g node-id="154"><path d="M 519.58 672.06 L 443.81 692.13 L 463.99 616.79 Z" fill="#ffffff" fill-rule="nonzero" group-id="1,3,6,14" id="path-2" node-id="46" stroke="none" target-height="75.34216" target-width="75.77692" target-x="443.80615" target-y="616.7875"></path></g><g node-id="155"><g clip-path="url(#mask-2)" group-id="1,3,6,15" node-id="139"><path d="M 476.81 687.33 L 451.36 712.78 L 423.07 684.50 L 448.53 659.04 Z" fill="#160a45" fill-rule="nonzero" group-id="1,3,6,15,22" id="矩形" node-id="51" stroke="none" target-height="53.740112" target-width="53.740112" target-x="423.07367" target-y="659.04254"></path></g></g><g node-id="156"><path d="M 774.53 417.89 L 717.97 474.46 L 661.40 417.89 L 717.97 361.32 Z" fill="#dedaff" fill-rule="evenodd" group-id="1,3,6,16" id="矩形" node-id="52" stroke="none" target-height="113.137085" target-width="113.137085" target-x="661.3969" target-y="361.32373"></path></g><path d="M 732.11 460.32 L 717.97 474.46 L 661.40 417.89 L 675.54 403.75 Z" fill="#ffffff" fill-rule="nonzero" group-id="1,3,6,17" id="矩形" node-id="53" stroke="none" target-height="70.71069" target-width="70.71069" target-x="661.3969" target-y="403.75012"></path></g></g></g></svg>